<mxfile host="app.diagrams.net" modified="2021-03-01T06:09:05.936Z" agent="5.0 (Windows NT 10.0; WOW64) AppleWebKit/537.36 (KHTML, like Gecko) Chrome/88.0.4324.182 Safari/537.36" etag="WJhyX8wL4OvjXvPF_462" version="14.4.3" type="github">
  <diagram id="qBwg2PSyuHUYXUNRrXFn" name="Page-1">
    <mxGraphModel dx="868" dy="450" grid="1" gridSize="10" guides="1" tooltips="1" connect="1" arrows="1" fold="1" page="1" pageScale="1" pageWidth="827" pageHeight="1169" math="0" shadow="0">
      <root>
        <mxCell id="0" />
        <mxCell id="1" parent="0" />
        <mxCell id="-mcnRUAhNqTxlSiONlOX-1" value="专项多确认单改造" style="rounded=0;whiteSpace=wrap;html=1;fillColor=#dae8fc;strokeColor=#6c8ebf;fontStyle=1;fontSize=14;sketch=0;shadow=0;" vertex="1" parent="1">
          <mxGeometry x="30" y="20" width="160" height="50" as="geometry" />
        </mxCell>
        <mxCell id="-mcnRUAhNqTxlSiONlOX-2" value="专项计划管理&lt;br&gt;" style="rounded=0;whiteSpace=wrap;html=1;fontSize=14;shadow=0;sketch=0;fillColor=#ffe6cc;strokeColor=#d79b00;" vertex="1" parent="1">
          <mxGeometry x="100" y="120" width="160" height="60" as="geometry" />
        </mxCell>
        <mxCell id="-mcnRUAhNqTxlSiONlOX-3" value="&lt;span&gt;指定（多个）确认单模板&lt;/span&gt;" style="rounded=0;whiteSpace=wrap;html=1;shadow=0;sketch=0;fontSize=14;fillColor=#fff2cc;strokeColor=#d6b656;" vertex="1" parent="1">
          <mxGeometry x="100" y="180" width="160" height="60" as="geometry" />
        </mxCell>
        <mxCell id="-mcnRUAhNqTxlSiONlOX-4" value="&amp;nbsp;工单流程" style="rounded=0;whiteSpace=wrap;html=1;fontSize=14;shadow=0;sketch=0;fillColor=#ffe6cc;strokeColor=#d79b00;" vertex="1" parent="1">
          <mxGeometry x="338.5" y="120" width="150" height="60" as="geometry" />
        </mxCell>
        <mxCell id="-mcnRUAhNqTxlSiONlOX-5" value="&lt;span&gt;查询确认单模板&lt;br&gt;填写并生成确认单&lt;/span&gt;" style="rounded=0;whiteSpace=wrap;html=1;shadow=0;sketch=0;fontSize=14;fillColor=#fff2cc;strokeColor=#d6b656;" vertex="1" parent="1">
          <mxGeometry x="338.5" y="180" width="150" height="60" as="geometry" />
        </mxCell>
        <mxCell id="-mcnRUAhNqTxlSiONlOX-6" value="专项计划管理" style="rounded=0;whiteSpace=wrap;html=1;fontSize=14;shadow=0;sketch=0;fillColor=#ffe6cc;strokeColor=#d79b00;" vertex="1" parent="1">
          <mxGeometry x="560" y="120" width="150" height="60" as="geometry" />
        </mxCell>
        <mxCell id="-mcnRUAhNqTxlSiONlOX-7" value="&lt;span&gt;展示对账状态&lt;br&gt;（所有确认单均对账才认为对账完成）&lt;br&gt;&lt;/span&gt;" style="rounded=0;whiteSpace=wrap;html=1;shadow=0;sketch=0;fontSize=14;fillColor=#fff2cc;strokeColor=#d6b656;" vertex="1" parent="1">
          <mxGeometry x="560" y="180" width="150" height="60" as="geometry" />
        </mxCell>
        <mxCell id="-mcnRUAhNqTxlSiONlOX-9" value="新增表t_demand_confirm记录专项需求和确认单的关联关系" style="rounded=0;whiteSpace=wrap;html=1;shadow=0;sketch=0;fontSize=14;fillColor=#f8cecc;strokeColor=#b85450;" vertex="1" parent="1">
          <mxGeometry x="30" y="300" width="230" height="60" as="geometry" />
        </mxCell>
        <mxCell id="-mcnRUAhNqTxlSiONlOX-11" value="提供给customer的接口逻辑修改" style="rounded=0;whiteSpace=wrap;html=1;shadow=0;sketch=0;fontSize=14;fillColor=#f8cecc;strokeColor=#b85450;" vertex="1" parent="1">
          <mxGeometry x="298.5" y="300" width="230" height="60" as="geometry" />
        </mxCell>
        <mxCell id="-mcnRUAhNqTxlSiONlOX-13" value="在t_task_workorder表中新增是否对账的字段，每次完成下载时都会进行该字段的更新，如果工单的所有确认单均完成对账，则将其更新为已对账状态，否则是未对账状态" style="rounded=0;whiteSpace=wrap;html=1;shadow=0;sketch=0;fontSize=14;fillColor=#f8cecc;strokeColor=#b85450;align=left;" vertex="1" parent="1">
          <mxGeometry x="550" y="300" width="230" height="110" as="geometry" />
        </mxCell>
      </root>
    </mxGraphModel>
  </diagram>
</mxfile>
